<svg width="354" height="296" viewBox="0 0 354 296" fill="none" xmlns="http://www.w3.org/2000/svg">
<path d="M183.665 54.9388L105.082 251.863L101.35 248.525L183.665 54.9388Z" fill="#52D0C2"/>
<path d="M204.915 29.4311C204.915 29.4311 189.616 51.9016 181.889 54.8281C181.889 54.8281 185.647 37.496 204.915 29.4311ZM214.403 47.913C214.403 47.913 193.265 59.4362 185.497 58.3406C185.504 58.345 194.767 45.8182 214.403 47.913Z" fill="#52D0C2"/>
<path d="M194.173 10.515C194.173 10.515 190.699 46.1946 181.999 52.906C181.999 52.906 173.085 28.3347 194.173 10.515ZM215.259 61.3548C215.259 61.3548 189.922 77.6419 182.43 81.875C180.668 82.8764 179.608 83.1063 179.021 82.7925C177.362 81.9178 180.316 76.3598 182.934 73.0356C186.437 68.6163 200.517 57.7899 215.259 61.3548Z" fill="#52D0C2"/>
<path d="M179.786 82.6108C179.786 82.6108 179.94 82.5461 179.77 82.7117C177.901 84.5142 166.564 95.4235 165.187 97.7669C163.689 100.332 166.456 93.8975 166.456 93.8975L179.786 82.6108ZM186.61 58.2257C186.61 58.2257 186.904 58.2991 186.816 58.3635C184.595 59.7509 178.163 67.8706 176.792 70.2184C175.294 72.7832 177.477 67.7466 177.477 67.7466L186.61 58.2257ZM213.076 74.4386C213.076 74.4386 185.863 100.958 176.68 104.352C164.97 108.704 176.453 91.988 179.452 89.6335C182.45 87.2791 198.251 72.4348 213.076 74.4386Z" fill="#52D0C2"/>
<path d="M186.84 58.6948C186.84 58.6948 187.134 58.7684 187.046 58.8328C184.825 60.2216 178.393 68.3494 177.022 70.6996C175.524 73.267 177.707 68.2253 177.707 68.2253L186.84 58.6948ZM172.846 103.848C172.846 103.848 173.016 103.772 172.791 103.935C170.749 105.925 158.171 118.208 156.569 120.761C154.813 123.559 158.121 116.573 158.121 116.573L172.846 103.848ZM219.619 100.25C219.619 100.25 181.819 124.616 170.674 127.112C156.48 130.285 172.723 112.028 176.75 109.912C180.777 107.797 203.888 96.46 219.619 100.25Z" fill="#52D0C2"/>
<path d="M166.134 126.481C166.134 126.481 166.79 126.081 166.572 126.294C164.267 128.559 150.564 139.802 148.775 142.661C146.837 145.846 150.071 138.45 150.071 138.45L166.134 126.481ZM215.958 123.585C215.958 123.585 174.364 146.823 162.775 149.749C148.068 153.495 167.205 133.843 174.053 129.852C181.106 125.808 199.912 120.171 215.958 123.585Z" fill="#52D0C2"/>
<path d="M158.044 148.903C158.044 148.903 158.732 148.468 158.504 148.696C156.05 151.107 141.563 163.189 139.659 166.227C137.578 169.55 141.135 161.825 141.135 161.825L158.044 148.903ZM207.899 145.402C207.899 145.402 166.3 168.633 154.71 171.558C140.002 175.305 159.141 155.661 165.991 151.672C173.019 147.623 191.832 141.98 207.899 145.402Z" fill="#52D0C2"/>
<path d="M149.908 170.92C149.908 170.92 150.596 170.485 150.368 170.713C147.915 173.127 133.019 185.671 131.116 188.713C129.035 192.039 132.831 183.512 132.831 183.512L149.908 170.92ZM206.204 169.461C206.204 169.461 160.043 190.787 148.482 193.73C133.777 197.476 156.427 176.037 163.275 172.044C170.278 167.955 190.14 166.027 206.204 169.461Z" fill="#52D0C2"/>
<path d="M144.567 193.528C144.567 193.528 144.965 193.313 144.686 193.608C141.771 196.556 123.748 211.224 121.36 214.808C118.779 218.689 123.301 208.582 123.301 208.582L144.567 193.528ZM204.443 199.991C193.151 204.51 181.668 208.123 170.092 210.799C158.636 213.276 146.897 212.728 142.011 213.039C126.547 214.014 153.143 198.858 160.747 196.231C168.531 193.558 188.938 193.829 204.443 199.991Z" fill="#52D0C2"/>
<path d="M138.25 211.778C138.25 211.778 138.649 211.563 138.37 211.859C135.455 214.806 116.021 230.692 113.806 234.394C113.268 235.257 116.702 226.832 116.702 226.832L138.25 211.778ZM195.749 223.174C195.749 223.174 176.313 231.196 157.181 235.463C144.332 238.327 131.214 237.871 125.751 238.276C108.446 239.537 138.393 222.55 146.952 219.601C155.672 216.547 178.474 216.581 195.749 223.174ZM183.419 264.062C183.419 264.062 160.653 259.159 142.676 257.716C121.604 256.028 118.41 255.097 113.682 252.961C98.7131 246.136 137.54 238.926 145.898 240.341C154.441 241.791 171.697 250.701 183.419 264.062Z" fill="#52D0C2"/>
<path d="M120.97 234.822C120.97 234.822 121.922 234.251 121.779 234.388C120.192 235.829 111.053 240.703 110.211 242.873C110.014 243.382 111.585 239.024 111.585 239.024L120.97 234.822ZM113.028 247.515C113.028 247.515 113.619 247.335 113.538 247.402C112.683 248.048 106.867 249.3 106.787 250.64C106.768 250.959 106.862 248.202 106.862 248.202L113.028 247.515Z" fill="#52D0C2"/>
<path d="M185.755 24.7625C185.755 24.7625 178.526 51.1804 179.432 59.194C179.425 59.1895 187.561 45.2167 185.755 24.7625ZM172.73 28.8764C172.73 28.8764 173.292 53.0268 176.371 58.5386C178.449 48.051 177.16 37.5542 172.73 28.8764Z" fill="#52D0C2"/>
<path d="M199.47 21.8375C199.47 21.8375 181.367 47.0035 180.555 58.1648C180.548 58.1603 196.689 49.8217 199.47 21.8375ZM165.216 37.0292C165.216 37.0292 164.66 67.423 164.787 76.055C164.815 78.086 165.039 79.0694 165.378 79.3291C166.392 80.0958 168.429 74.2554 169.376 70.087C170.637 64.5168 171.913 46.508 165.216 37.0292Z" fill="#52D0C2"/>
<path d="M166.364 78.8768C166.364 78.8768 166.346 78.7087 166.314 78.9556C165.936 81.5892 163.679 97.5463 162.849 100.134C161.947 102.954 164.529 96.6729 164.529 96.6729L166.364 78.8768ZM177.352 57.9922C177.352 57.9922 177.218 57.801 177.213 57.8987C177.174 60.5474 174.832 70.851 174.021 73.4069C173.12 76.2269 175.135 71.3006 175.135 71.3006L177.352 57.9922ZM160.104 47.1409C160.104 47.1409 154.518 85.6093 155.616 95.1217C157.008 107.249 162.372 87.4796 162.68 83.59C162.989 79.7003 165.943 57.6979 160.104 47.1409Z" fill="#52D0C2"/>
<path d="M177.623 57.7574C177.623 57.7574 177.488 57.5663 177.483 57.6639C177.445 60.31 175.106 70.6029 174.295 73.1561C173.395 75.9731 175.409 71.052 175.409 71.052L177.623 57.7574ZM157.746 97.4408C157.746 97.4408 157.732 97.2526 157.691 97.5274C157.258 100.457 154.683 118.204 153.798 121.087C152.829 124.239 155.557 117.203 155.557 117.203L157.746 97.4408ZM144.638 57.8853C144.638 57.8853 143.622 103.419 145.862 113.888C148.708 127.21 153.342 102.727 153.188 98.2077C153.034 93.6886 151.766 68.009 144.638 57.8853Z" fill="#52D0C2"/>
<path d="M148.813 117.234C148.813 117.234 148.816 116.46 148.779 116.761C148.301 120.047 146.648 138.163 145.65 141.391C144.567 144.92 147.504 137.684 147.504 137.684L148.813 117.234ZM134.4 75.427C134.4 75.427 135.215 123.512 137.328 134.65C140.014 148.827 144.473 121.026 144.429 113.005C144.384 104.791 141.373 86.1688 134.4 75.427Z" fill="#52D0C2"/>
<path d="M140.026 138.291C140.026 138.291 140.04 137.469 139.993 137.786C139.477 141.282 137.614 160.545 136.587 163.998C135.48 167.747 138.483 160.029 138.483 160.029L140.026 138.291ZM125.937 96.085C125.937 96.085 126.75 144.158 128.863 155.293C131.548 169.466 136.008 141.672 135.965 133.653C135.921 125.454 132.924 106.8 125.937 96.085Z" fill="#52D0C2"/>
<path d="M131.543 158.806C131.543 158.806 131.557 157.983 131.51 158.3C130.995 161.799 129.022 181.714 127.989 185.166C126.883 188.918 130.24 180.489 130.24 180.489L131.543 158.806ZM114.301 112.67C114.301 112.67 117.608 163.271 119.737 174.394C122.424 188.583 126.707 156.809 126.663 148.782C126.611 140.57 121.289 123.397 114.301 112.67Z" fill="#52D0C2"/>
<path d="M122.421 177.31C122.421 177.31 122.402 176.86 122.342 177.256C121.695 181.446 119.593 205.099 118.436 209.259C117.17 213.805 121.16 203.789 121.16 203.789L122.421 177.31ZM99.7764 133.481C100.93 145.081 102.665 156.527 104.975 167.768C107.312 178.494 111.364 187.539 112.76 191.645C117.186 204.636 116.807 173.809 115.779 166.078C114.727 158.161 108.077 142.009 99.7764 133.481ZM114.919 194.293C114.919 194.293 114.9 193.843 114.84 194.239C114.193 198.428 111.882 223.979 110.596 228.075C110.314 229.005 113.725 220.996 113.725 220.996L114.919 194.293ZM90.3952 155.459C91.6851 168.503 93.6091 181.379 96.1594 194.033C98.731 206.115 103.184 216.325 104.738 220.962C109.601 235.601 109.117 200.942 107.973 192.237C106.768 183.346 99.4941 165.151 90.3952 155.459ZM72.4001 191.066C72.4001 191.066 82.3199 206.201 88.8533 219.667C96.5154 235.468 98.0154 237.438 100.701 239.879C109.155 247.56 100.595 211.956 97.1649 206.16C93.6318 200.228 83.3375 192.006 72.4001 191.066Z" fill="#52D0C2"/>
<path d="M107.785 226.375C107.793 226.064 107.786 225.754 107.763 225.448C107.487 227.631 107.753 238.026 106.856 240.084C106.642 240.574 108.495 236.532 108.495 236.532L107.785 226.375ZM103.468 240.832C103.468 240.832 103.373 240.246 103.364 240.351C103.298 241.418 104.451 246.869 103.752 247.814C103.604 248.049 105.043 246.198 105.043 246.198L103.468 240.832Z" fill="#52D0C2"/>
</svg>
