<svg width="176" height="256" viewBox="0 0 176 256" fill="none" xmlns="http://www.w3.org/2000/svg">
<path d="M72.5698 91.0315L206.61 305.132L200.689 306.413L72.5698 91.0315Z" fill="#85CDB2"/>
<path d="M65.8412 52.6765C65.8412 52.6765 76.842 83.4935 73.7856 93.1917C73.7856 93.1917 59.0043 77.3951 65.8412 52.6765ZM92.1678 56.1424C92.1678 56.1424 87.4036 85.1231 80.2019 92.0612C80.2117 92.0577 74.6535 74.1502 92.1678 56.1424Z" fill="#85CDB2"/>
<path d="M37.8311 50.4515C37.8311 50.4515 71.5599 78.7319 71.6167 92.0151C71.6167 92.0151 39.5542 83.7288 37.8311 50.4515ZM106.234 64.983C106.234 64.983 103.073 101.397 101.542 111.759C101.188 114.2 100.595 115.409 99.8164 115.77C97.6265 116.803 94.258 110.01 92.9076 105.105C91.1313 98.5611 91.0749 77.0891 106.234 64.983Z" fill="#85CDB2"/>
<path d="M98.6469 113.743C98.6469 113.743 98.701 113.546 98.7373 113.83C99.1182 116.936 101.402 135.76 102.719 138.756C104.169 142.026 99.7581 134.804 99.7581 134.804L98.6469 113.743ZM79.0629 90.0054C79.0629 90.0054 79.3676 89.7658 79.3648 89.8974C79.0457 93.0635 82.3142 105.087 83.6413 108.08C85.0911 111.35 81.6505 105.681 81.6505 105.681L79.0629 90.0054ZM116.327 75.0817C116.327 75.0817 122.149 120.499 118.437 131.957C113.727 146.586 105.624 123.574 105.562 118.964C105.501 114.355 102.686 88.3697 116.327 75.0817Z" fill="#85CDB2"/>
<path d="M79.0251 89.1095C79.0251 89.1095 79.3304 88.8694 79.3277 89.0013C79.0078 92.1731 82.2834 104.219 83.6134 107.217C85.0663 110.492 81.6183 104.814 81.6183 104.814L79.0251 89.1095ZM114.259 134.456C114.259 134.456 114.314 134.234 114.305 134.571C114.741 137.984 117.45 159.024 118.807 162.393C120.293 166.085 115.738 157.935 115.738 157.935L114.259 134.456ZM147.237 85.5318C147.237 85.5318 142.542 140.02 136.36 152.819C128.482 169.116 122.532 140.277 123.524 134.807C124.515 129.337 131.029 98.5025 147.237 85.5318Z" fill="#85CDB2"/>
<path d="M130.571 155.777C130.571 155.777 130.678 154.843 130.724 155.208C131.232 159.087 131.977 180.594 133.499 184.373C135.239 188.528 130.202 180.141 130.202 180.141L130.571 155.777ZM166.811 104.087C166.811 104.087 157.903 161.769 151.783 175.363C144.05 192.639 138.962 159.847 140.26 150.234C141.663 140.381 150.684 117.7 166.811 104.087Z" fill="#85CDB2"/>
<path d="M146.041 178.913C146.041 178.913 146.135 177.924 146.19 178.311C146.731 182.436 147.723 205.287 149.34 209.302C151.109 213.692 145.988 204.762 145.988 204.762L146.041 178.913ZM181.649 126.832C181.649 126.832 172.75 184.455 166.636 198.035C158.912 215.293 153.829 182.535 155.126 172.932C156.502 163.11 165.509 140.442 181.649 126.832Z" fill="#85CDB2"/>
<path d="M161.035 201.579C161.035 201.579 161.131 200.589 161.185 200.976C161.728 205.111 162.858 228.746 164.479 232.771C166.252 237.172 160.496 227.426 160.496 227.426L161.035 201.579ZM203.892 144.348C203.892 144.348 189.398 205.335 183.308 218.934C175.565 236.234 171.42 198.644 172.72 189.018C174.042 179.168 187.713 157.99 203.892 144.348Z" fill="#85CDB2"/>
<path d="M178.57 221.67C178.57 221.67 178.664 221.12 178.747 221.606C179.471 226.595 180.293 254.95 182.087 259.855C184.032 265.163 177.227 253.549 177.227 253.549L178.57 221.67ZM232.51 166.112C228.229 180.608 222.867 194.66 216.469 208.148C209.962 221.379 200.125 232.774 196.586 237.895C185.369 254.095 190.819 216.796 194.129 207.327C197.533 197.644 213.934 177.356 232.51 166.112Z" fill="#85CDB2"/>
<path d="M190.776 239.578C190.776 239.578 190.87 239.028 190.953 239.514C191.677 244.503 192.634 275.131 194.685 279.946C195.146 281.09 189.209 271.745 189.209 271.745L190.776 239.578ZM247.906 189.851C247.906 189.851 240.787 214.974 230.052 237.164C222.841 252.064 212.008 264.91 208.108 270.677C195.731 288.927 201.949 246.977 205.684 236.322C209.437 225.432 227.487 202.571 247.906 189.851ZM280.148 230.856C280.148 230.856 257.127 250.271 241.442 267.303C223.06 287.268 219.58 289.822 213.652 293.072C194.818 303.316 218.09 259.3 226.146 251.903C234.386 244.344 257.167 233.264 280.148 230.856Z" fill="#85CDB2"/>
<path d="M46.0418 70.6406C46.0418 70.6406 67.303 96.1014 76.18 100.753C76.1703 100.756 68.3046 83.0138 46.0418 70.6406ZM40.028 86.4036C40.028 86.4036 65.0832 102.57 73.1138 103.334C64.0527 94.0112 52.3444 88.0201 40.028 86.4036Z" fill="#85CDB2"/>
<path d="M53.4456 55.1574C53.4456 55.1574 64.8779 90.3832 75.4917 98.9117C75.4821 98.9152 79.484 77.2737 53.4456 55.1574ZM42.4308 99.3507C42.4308 99.3507 72.604 120.949 81.392 126.803C83.4589 128.182 84.6211 128.643 85.1425 128.49C86.6932 128.024 82.378 121.976 78.9087 118.158C74.2693 113.06 57.1183 99.3326 42.4308 99.3507Z" fill="#85CDB2"/>
<path d="M84.3255 127.119C84.3255 127.119 84.1406 127.019 84.3671 127.222C86.7558 129.422 101.259 142.712 103.246 145.328C105.415 148.175 101.035 141.264 101.035 141.264L84.3255 127.119ZM71.6469 101.752C71.6469 101.752 71.3462 101.754 71.4421 101.826C74.1127 103.699 82.7836 113.158 84.754 115.733C86.9229 118.58 83.4797 113.169 83.4797 113.169L71.6469 101.752ZM47.0514 111.35C47.0514 111.35 81.8995 143.534 92.4616 149.033C105.921 156.051 89.9679 137.037 86.243 134.037C82.518 131.038 62.3974 112.868 47.0514 111.35Z" fill="#85CDB2"/>
<path d="M71.1779 101.585C71.1779 101.585 70.8779 101.587 70.9736 101.659C73.6381 103.529 82.2895 112.971 84.2554 115.542C86.4194 118.384 82.984 112.982 82.984 112.982L71.1779 101.585ZM96.0374 148.746C96.0374 148.746 95.8348 148.63 96.083 148.86C98.7269 151.317 114.785 166.155 117.028 169.028C119.479 172.169 114.449 164.596 114.449 164.596L96.0374 148.746ZM45.5041 134.342C45.5041 134.342 91.0759 166.874 103.489 171.903C119.281 178.308 97.9747 156.768 93.2526 153.792C88.5304 150.815 61.3893 134.292 45.5041 134.342Z" fill="#85CDB2"/>
<path d="M107.995 171.119C107.995 171.119 107.205 170.579 107.484 170.825C110.469 173.584 127.706 187.813 130.22 191.051C132.977 194.583 127.892 186.625 127.892 186.625L107.995 171.119ZM53.813 156.504C53.813 156.504 103.673 189.071 116.743 194.691C133.377 201.848 108.446 178.091 100.202 172.565C91.7592 166.909 70.3188 156.991 53.813 156.504Z" fill="#85CDB2"/>
<path d="M121.556 194.095C121.556 194.095 120.725 193.51 121.012 193.777C124.182 196.718 142.424 211.95 145.147 215.373C148.108 219.081 142.583 210.724 142.583 210.724L121.556 194.095ZM67.2305 178.878C67.2305 178.878 117.069 211.432 130.134 217.049C146.76 224.203 121.841 200.456 113.6 194.933C105.175 189.286 83.7167 179.333 67.2305 178.878Z" fill="#85CDB2"/>
<path d="M134.922 216.61C134.922 216.61 134.09 216.024 134.377 216.292C137.553 219.238 156.383 235.047 159.101 238.48C162.067 242.193 156.092 232.977 156.092 232.977L134.922 216.61ZM74.04 201.824C74.04 201.824 128.468 233.664 141.542 239.259C158.195 246.425 129.05 220.065 120.796 214.533C112.347 208.88 90.5531 202.28 74.04 201.824Z" fill="#85CDB2"/>
<path d="M144.658 238.316C144.658 238.316 144.183 238.024 144.541 238.358C148.306 241.902 170.783 260.37 174.119 264.399C177.762 268.804 170.677 257.908 170.677 257.908L144.658 238.316ZM82.1821 230.434C94.92 237.324 107.956 243.529 121.234 249.022C134.009 254.131 146.415 256.375 151.698 257.833C168.422 262.438 136.681 241.464 127.989 237.128C119.088 232.691 97.3943 228.103 82.1821 230.434ZM156.093 257.524C156.093 257.524 155.619 257.232 155.976 257.566C159.742 261.109 183.99 281.099 187.159 285.212C187.887 286.136 182.394 277.204 182.394 277.204L156.093 257.524ZM97.2394 254.966C111.556 262.72 126.199 269.728 141.108 275.962C155.449 281.778 169.358 284.43 175.307 286.1C194.055 291.412 158.322 267.888 148.547 262.994C138.531 258.031 114.265 252.649 97.2394 254.966ZM119.438 297.486C119.438 297.486 142.659 298.124 161.521 300.966C183.652 304.307 186.838 304.182 191.435 303.208C205.904 300.137 162.87 283.973 154.267 283.363C145.444 282.761 128.979 287.283 119.438 297.486Z" fill="#85CDB2"/>
</svg>
